<svg xmlns="http://www.w3.org/2000/svg" viewBox="0 0 64 64" role="img" aria-label="Linkora">
  <defs>
    <linearGradient id="lg" x1="8" y1="6" x2="56" y2="58" gradientUnits="userSpaceOnUse">
      <stop offset="0%" stop-color="#0d9488"/>
      <stop offset="55%" stop-color="#0f766e"/>
      <stop offset="100%" stop-color="#1d4ed8"/>
    </linearGradient>
    <linearGradient id="lgSoft" x1="20" y1="18" x2="48" y2="46" gradientUnits="userSpaceOnUse">
      <stop offset="0%" stop-color="#5eead4"/>
      <stop offset="100%" stop-color="#93c5fd"/>
    </linearGradient>
  </defs>
  <!-- Fond arrondi -->
  <rect x="2" y="2" width="60" height="60" rx="16" fill="url(#lg)"/>
  <!-- Reflet léger -->
  <path d="M16 6c10-2 28 0 36 8 2 8-2 18-10 22-12 6-28 2-34-8-4-7-2-18 8-22z" fill="#fff" opacity=".08"/>

  <!-- Maillon gauche (récupération de lien) -->
  <path d="M22.5 28.5c-3.6 3.6-3.6 9.4 0 13l3.2 3.2c3.6 3.6 9.4 3.6 13 0l1.4-1.4"
        fill="none" stroke="#fff" stroke-width="3.2" stroke-linecap="round" stroke-linejoin="round"/>
  <!-- Maillon droit (chaîne) -->
  <path d="M41.5 35.5c3.6-3.6 3.6-9.4 0-13l-3.2-3.2c-3.6-3.6-9.4-3.6-13 0l-1.4 1.4"
        fill="none" stroke="#fff" stroke-width="3.2" stroke-linecap="round" stroke-linejoin="round"/>

  <!-- Clé / débridage API -->
  <circle cx="43.5" cy="43.5" r="5.2" fill="none" stroke="url(#lgSoft)" stroke-width="2.4"/>
  <path d="M47.2 47.2l5.8 5.8" fill="none" stroke="url(#lgSoft)" stroke-width="2.4" stroke-linecap="round"/>
  <circle cx="43.5" cy="43.5" r="1.6" fill="#fff"/>

  <!-- Étincelles IA / renommage -->
  <path d="M18 16l1.1 2.6L21.7 20l-2.6 1.1L18 23.7l-1.1-2.6L14.3 20l2.6-1.1z" fill="#fde68a"/>
  <path d="M50 18l.7 1.6L52.3 20l-1.6.7L50 22.3l-.7-1.6L47.7 20l1.6-.7z" fill="#fff" opacity=".9"/>
  <path d="M14 40l.55 1.25L15.8 42l-1.25.55L14 43.8l-.55-1.25L12.2 42l1.25-.55z" fill="#a7f3d0"/>
</svg>
